<?xml version="1.0" encoding="UTF-8" standalone="no"?>
<!-- Created with Inkscape (http://www.inkscape.org/) -->

<svg
   width="80.433334mm"
   height="61.912502mm"
   viewBox="0 0 80.433334 61.912502"
   version="1.1"
   id="svg1"
   xml:space="preserve"
   inkscape:export-filename="stars-2.svg"
   inkscape:export-xdpi="96"
   inkscape:export-ydpi="96"
   xmlns:inkscape="http://www.inkscape.org/namespaces/inkscape"
   xmlns:sodipodi="http://sodipodi.sourceforge.net/DTD/sodipodi-0.dtd"
   xmlns="http://www.w3.org/2000/svg"
   xmlns:svg="http://www.w3.org/2000/svg"><sodipodi:namedview
     id="namedview1"
     pagecolor="#ffffff"
     bordercolor="#000000"
     borderopacity="0.25"
     inkscape:showpageshadow="2"
     inkscape:pageopacity="0.0"
     inkscape:pagecheckerboard="0"
     inkscape:deskcolor="#d1d1d1"
     inkscape:document-units="mm" /><defs
     id="defs1" /><g
     inkscape:label="Layer 1"
     inkscape:groupmode="layer"
     id="layer1"
     transform="translate(-77.992287,-107.93927)"><path
       sodipodi:type="star"
       style="fill:#b5bfe2;stroke-width:0.264583"
       id="path1"
       inkscape:flatsided="false"
       sodipodi:sides="4"
       sodipodi:cx="19.769115"
       sodipodi:cy="14.913938"
       sodipodi:r1="6.8226733"
       sodipodi:r2="3.4113376"
       sodipodi:arg1="-0.04970267"
       sodipodi:arg2="0.73569549"
       inkscape:rounded="0"
       inkscape:randomized="0"
       d="m 26.583363,14.574972 -4.285204,2.628324 -2.190078,4.524889 -2.628324,-4.285204 -4.524889,-2.190078 4.285204,-2.628324 2.190078,-4.5248893 2.628324,4.2852043 z"
       transform="matrix(0.26458333,0,0,0.26458333,77.992287,107.93927)" /><path
       sodipodi:type="star"
       style="fill:#b5bfe2;stroke-width:0.264583"
       id="path2"
       inkscape:flatsided="false"
       sodipodi:sides="4"
       sodipodi:cx="137.83852"
       sodipodi:cy="22.232672"
       sodipodi:r1="13.672615"
       sodipodi:r2="6.8363094"
       sodipodi:arg1="-0.17931973"
       sodipodi:arg2="0.60607843"
       inkscape:rounded="0"
       inkscape:randomized="0"
       d="m 151.29189,19.794021 -7.83469,6.332946 -3.18003,9.559083 -6.33295,-7.834696 -9.55908,-3.180031 7.83469,-6.332946 3.18004,-9.5590834 6.33294,7.8346954 z"
       transform="matrix(0.26458333,0,0,0.26458333,77.992287,107.93927)" /><path
       sodipodi:type="star"
       style="fill:#b5bfe2;stroke-width:0.264583"
       id="path3"
       inkscape:flatsided="false"
       sodipodi:sides="4"
       sodipodi:cx="172.64815"
       sodipodi:cy="35.711231"
       sodipodi:r1="8.0899086"
       sodipodi:r2="4.0449553"
       sodipodi:arg1="0.73992808"
       sodipodi:arg2="1.5253262"
       inkscape:rounded="0"
       inkscape:randomized="0"
       d="m 178.62268,41.165729 -5.79067,-1.413723 -5.63836,1.933761 1.41372,-5.790675 -1.93376,-5.638359 5.79068,1.413724 5.63836,-1.933761 -1.41373,5.790674 z"
       transform="matrix(0.26458333,0,0,0.26458333,77.992287,107.93927)" /><path
       sodipodi:type="star"
       style="fill:#b5bfe2;stroke-width:0.264583"
       id="path4"
       inkscape:flatsided="false"
       sodipodi:sides="4"
       sodipodi:cx="223.21521"
       sodipodi:cy="34.484161"
       sodipodi:r1="5.1888852"
       sodipodi:r2="2.5944431"
       sodipodi:arg1="-0.34302394"
       sodipodi:arg2="0.44237422"
       inkscape:rounded="0"
       inkscape:randomized="0"
       d="m 228.1018,32.73895 -2.54189,2.855857 -0.59949,3.775945 -2.85586,-2.541894 -3.77594,-0.599486 2.54189,-2.855856 0.59949,-3.775945 2.85586,2.541894 z"
       transform="matrix(0.26458333,0,0,0.26458333,77.992287,107.93927)" /><path
       sodipodi:type="star"
       style="fill:#b5bfe2;stroke-width:0.264583"
       id="path5"
       inkscape:flatsided="false"
       sodipodi:sides="4"
       sodipodi:cx="231.94125"
       sodipodi:cy="30.644695"
       sodipodi:r1="1.7797729"
       sodipodi:r2="0.88988662"
       sodipodi:arg1="-0.19739556"
       sodipodi:arg2="0.5880026"
       inkscape:rounded="0"
       inkscape:randomized="0"
       d="m 233.68646,30.295653 -1.00478,0.842663 -0.39138,1.25159 -0.84267,-1.00478 -1.25159,-0.391389 1.00478,-0.842662 0.39139,-1.251591 0.84266,1.004781 z"
       transform="matrix(0.26458333,0,0,0.26458333,77.992287,107.93927)" /><path
       sodipodi:type="star"
       style="fill:#b5bfe2;stroke-width:0.264583"
       id="path6"
       inkscape:flatsided="false"
       sodipodi:sides="4"
       sodipodi:cx="246.909"
       sodipodi:cy="45.060837"
       sodipodi:r1="10.359055"
       sodipodi:r2="5.1795287"
       sodipodi:arg1="0.23161881"
       sodipodi:arg2="1.017017"
       inkscape:rounded="0"
       inkscape:randomized="0"
       d="m 256.99142,47.438793 -7.35848,2.027456 -5.1019,5.677015 -2.02746,-7.358485 -5.67701,-5.101898 7.35848,-2.027456 5.1019,-5.677015 2.02746,7.358484 z"
       transform="matrix(0.26458333,0,0,0.26458333,77.992287,107.93927)" /><path
       sodipodi:type="star"
       style="fill:#b5bfe2;stroke-width:0.264583"
       id="path7"
       inkscape:flatsided="false"
       sodipodi:sides="4"
       sodipodi:cx="203.76302"
       sodipodi:cy="97.976189"
       sodipodi:r1="11.786601"
       sodipodi:r2="5.893302"
       sodipodi:arg1="0.028053697"
       sodipodi:arg2="0.81345186"
       inkscape:rounded="0"
       inkscape:randomized="0"
       d="m 215.54498,98.306803 -7.7333,3.951827 -4.37928,7.49952 -3.95183,-7.7333 -7.49952,-4.379276 7.7333,-3.951829 4.37928,-7.49952 3.95183,7.733299 z"
       transform="matrix(0.26458333,0,0,0.26458333,77.992287,107.93927)" /><path
       sodipodi:type="star"
       style="fill:#b5bfe2;stroke-width:0.264583"
       id="path8"
       inkscape:flatsided="false"
       sodipodi:sides="4"
       sodipodi:cx="255.87025"
       sodipodi:cy="91.211983"
       sodipodi:r1="7.3120694"
       sodipodi:r2="3.6560357"
       sodipodi:arg1="2.5617354"
       sodipodi:arg2="3.3471336"
       inkscape:rounded="0"
       inkscape:randomized="0"
       d="m 249.75341,95.218299 2.53777,-4.752501 -0.42724,-5.37066 4.7525,2.537766 5.37066,-0.427237 -2.53777,4.752501 0.42724,5.37066 -4.7525,-2.537767 z"
       transform="matrix(0.26458333,0,0,0.26458333,77.992287,107.93927)" /><path
       sodipodi:type="star"
       style="fill:#b5bfe2;stroke-width:0.264583"
       id="path9"
       inkscape:flatsided="false"
       sodipodi:sides="4"
       sodipodi:cx="262.61316"
       sodipodi:cy="183.2041"
       sodipodi:r1="15.787076"
       sodipodi:r2="7.8935404"
       sodipodi:arg1="0.027663172"
       sodipodi:arg2="0.81306134"
       inkscape:rounded="0"
       inkscape:randomized="0"
       d="m 278.3942,183.64077 -10.35598,5.29716 -5.86173,10.04721 -5.29716,-10.35598 -10.04721,-5.86172 10.35598,-5.29716 5.86172,-10.04721 5.29716,10.35598 z"
       transform="matrix(0.26458333,0,0,0.26458333,77.992287,107.93927)" /><path
       sodipodi:type="star"
       style="fill:#b5bfe2;stroke-width:0.264583"
       id="path10"
       inkscape:flatsided="false"
       sodipodi:sides="4"
       sodipodi:cx="279.32135"
       sodipodi:cy="146.11894"
       sodipodi:r1="4.9943185"
       sodipodi:r2="2.49716"
       sodipodi:arg1="-0.0025039191"
       sodipodi:arg2="0.78289424"
       inkscape:rounded="0"
       inkscape:randomized="0"
       d="m 284.31565,146.10644 -3.22413,1.77383 -1.75766,3.23298 -1.77384,-3.22413 -3.23297,-1.75767 3.22413,-1.77384 1.75766,-3.23297 1.77384,3.22413 z"
       transform="matrix(0.26458333,0,0,0.26458333,77.992287,107.93927)" /><path
       sodipodi:type="star"
       style="fill:#b5bfe2;stroke-width:0.264583"
       id="path11"
       inkscape:flatsided="false"
       sodipodi:sides="4"
       sodipodi:cx="219.46036"
       sodipodi:cy="148.03967"
       sodipodi:r1="7.8153868"
       sodipodi:r2="3.9076948"
       sodipodi:arg1="2.6280456"
       sodipodi:arg2="3.4134437"
       inkscape:rounded="0"
       inkscape:randomized="0"
       d="m 212.6531,151.87914 3.04307,-4.88874 -0.0753,-5.75799 4.88874,3.04308 5.75799,-0.0753 -3.04308,4.88874 0.0753,5.75798 -4.88874,-3.04307 z"
       transform="matrix(0.26458333,0,0,0.26458333,77.992287,107.93927)" /><path
       sodipodi:type="star"
       style="fill:#b5bfe2;stroke-width:0.264583"
       id="path12"
       inkscape:flatsided="false"
       sodipodi:sides="4"
       sodipodi:cx="144.59831"
       sodipodi:cy="134.39799"
       sodipodi:r1="13.318114"
       sodipodi:r2="6.6590595"
       sodipodi:arg1="0.082041842"
       sodipodi:arg2="0.86744001"
       inkscape:rounded="0"
       inkscape:randomized="0"
       d="m 157.87163,135.48941 -8.96636,3.98729 -5.39837,8.19461 -3.98729,-8.96636 -8.19462,-5.39837 8.96637,-3.98729 5.39837,-8.19461 3.98729,8.96636 z"
       transform="matrix(0.26458333,0,0,0.26458333,77.992287,107.93927)" /><path
       sodipodi:type="star"
       style="fill:#b5bfe2;stroke-width:0.264583"
       id="path13"
       inkscape:flatsided="false"
       sodipodi:sides="4"
       sodipodi:cx="87.619476"
       sodipodi:cy="125.72933"
       sodipodi:r1="16.780993"
       sodipodi:r2="8.3904991"
       sodipodi:arg1="-0.42877516"
       sodipodi:arg2="0.35662301"
       inkscape:rounded="0"
       inkscape:randomized="0"
       d="m 102.88138,118.75251 -7.399325,9.90604 -0.885761,12.33269 -9.906039,-7.39933 -12.332683,-0.88576 7.399326,-9.90604 0.885761,-12.33268 9.906039,7.39932 z"
       transform="matrix(0.26458333,0,0,0.26458333,77.992287,107.93927)" /><path
       sodipodi:type="star"
       style="fill:#b5bfe2;stroke-width:0.264583"
       id="path14"
       inkscape:flatsided="false"
       sodipodi:sides="4"
       sodipodi:cx="135.22411"
       sodipodi:cy="91.298096"
       sodipodi:r1="6.9789214"
       sodipodi:r2="3.4894617"
       sodipodi:arg1="0.19658736"
       sodipodi:arg2="0.98198553"
       inkscape:rounded="0"
       inkscape:randomized="0"
       d="m 142.06861,92.661244 -4.90655,1.538694 -3.3011,3.942657 -1.5387,-4.906548 -3.94265,-3.301099 4.90654,-1.538695 3.3011,-3.942657 1.5387,4.906549 z"
       transform="matrix(0.26458333,0,0,0.26458333,77.992287,107.93927)" /><path
       sodipodi:type="star"
       style="fill:#b5bfe2;stroke-width:0.264583"
       id="path15"
       inkscape:flatsided="false"
       sodipodi:sides="4"
       sodipodi:cx="38.380581"
       sodipodi:cy="96.936714"
       sodipodi:r1="8.9296618"
       sodipodi:r2="4.4648323"
       sodipodi:arg1="-0.26472269"
       sodipodi:arg2="0.52067547"
       inkscape:rounded="0"
       inkscape:randomized="0"
       d="m 46.999179,94.600343 -4.74543,4.557474 -1.536797,6.397493 -4.557474,-4.74543 -6.397495,-1.536795 4.74543,-4.557474 1.536797,-6.397495 4.557474,4.74543 z"
       transform="matrix(0.26458333,0,0,0.26458333,77.992287,107.93927)" /><path
       sodipodi:type="star"
       style="fill:#b5bfe2;stroke-width:0.264583"
       id="path16"
       inkscape:flatsided="false"
       sodipodi:sides="4"
       sodipodi:cx="120.31525"
       sodipodi:cy="45.812885"
       sodipodi:r1="3.2717593"
       sodipodi:r2="1.6358801"
       sodipodi:arg1="0"
       sodipodi:arg2="0.78539816"
       inkscape:rounded="0"
       inkscape:randomized="0"
       d="m 123.58701,45.812885 -2.11502,1.156742 -1.15674,2.115018 -1.15675,-2.115018 -2.11501,-1.156742 2.11501,-1.156742 1.15675,-2.115017 1.15674,2.115017 z"
       transform="matrix(0.26458333,0,0,0.26458333,77.992287,107.93927)" /><path
       sodipodi:type="star"
       style="fill:#b5bfe2;stroke-width:0.264583"
       id="path17"
       inkscape:flatsided="false"
       sodipodi:sides="4"
       sodipodi:cx="134.23425"
       sodipodi:cy="47.201191"
       sodipodi:r1="5.1882854"
       sodipodi:r2="2.5941434"
       sodipodi:arg1="-0.013294031"
       sodipodi:arg2="0.77210413"
       inkscape:rounded="0"
       inkscape:randomized="0"
       d="m 139.42208,47.13222 -3.32927,1.87876 -1.78959,3.378038 -1.87876,-3.329268 -3.37803,-1.789588 3.32926,-1.87876 1.78959,-3.378038 1.87876,3.329268 z"
       transform="matrix(0.26458333,0,0,0.26458333,77.992287,107.93927)" /><path
       sodipodi:type="star"
       style="fill:#b5bfe2;stroke-width:0.264583"
       id="path18"
       inkscape:flatsided="false"
       sodipodi:sides="4"
       sodipodi:cx="69.173584"
       sodipodi:cy="12.325989"
       sodipodi:r1="9.9045534"
       sodipodi:r2="4.9522781"
       sodipodi:arg1="2.6290467"
       sodipodi:arg2="3.4144448"
       inkscape:rounded="0"
       inkscape:randomized="0"
       d="m 60.541778,17.183158 3.862731,-6.191705 -0.0881,-7.2972707 6.191706,3.8627318 7.29727,-0.088095 -3.862731,6.1917057 0.08809,7.29727 -6.191705,-3.862732 z"
       transform="matrix(0.26458333,0,0,0.26458333,77.992287,107.93927)" /><path
       sodipodi:type="star"
       style="fill:#b5bfe2;stroke-width:0.264583"
       id="path19"
       inkscape:flatsided="false"
       sodipodi:sides="4"
       sodipodi:cx="41.311562"
       sodipodi:cy="185.53516"
       sodipodi:r1="15.073612"
       sodipodi:r2="7.5368085"
       sodipodi:arg1="0.09275632"
       sodipodi:arg2="0.87815448"
       inkscape:rounded="0"
       inkscape:randomized="0"
       d="m 56.320376,186.93132 -10.196016,4.40388 -6.208967,9.20877 -4.403871,-10.19602 -9.208774,-6.20896 10.196015,-4.40387 6.208967,-9.20878 4.403871,10.19602 z"
       transform="matrix(0.26458333,0,0,0.26458333,77.992287,107.93927)" /><path
       sodipodi:type="star"
       style="fill:#b5bfe2;stroke-width:0.264583"
       id="path20"
       inkscape:flatsided="false"
       sodipodi:sides="4"
       sodipodi:cx="116.88644"
       sodipodi:cy="213.3297"
       sodipodi:r1="11.68064"
       sodipodi:r2="5.8403215"
       sodipodi:arg1="2.8136275"
       sodipodi:arg2="3.5990257"
       inkscape:rounded="0"
       inkscape:randomized="0"
       d="m 105.82838,217.09223 5.81818,-6.34189 1.47734,-8.4787 6.34189,5.81818 8.47871,1.47734 -5.81819,6.34189 -1.47734,8.47871 -6.34189,-5.81819 z"
       transform="matrix(0.26458333,0,0,0.26458333,77.992287,107.93927)" /><path
       sodipodi:type="star"
       style="fill:#b5bfe2;stroke-width:0.264583"
       id="path21"
       inkscape:flatsided="false"
       sodipodi:sides="4"
       sodipodi:cx="203.5359"
       sodipodi:cy="211.00677"
       sodipodi:r1="4.8952155"
       sodipodi:r2="2.4476085"
       sodipodi:arg1="-0.071363277"
       sodipodi:arg2="0.71403489"
       inkscape:rounded="0"
       inkscape:randomized="0"
       d="m 208.41866,210.65773 -3.03304,1.95196 -1.50067,3.27984 -1.95196,-3.03303 -3.27984,-1.50068 3.03303,-1.95196 1.50068,-3.27984 1.95195,3.03303 z"
       transform="matrix(0.26458333,0,0,0.26458333,77.992287,107.93927)" /><path
       sodipodi:type="star"
       style="fill:#b5bfe2;stroke-width:0.264583"
       id="path22"
       inkscape:flatsided="false"
       sodipodi:sides="4"
       sodipodi:cx="165.77783"
       sodipodi:cy="90.169586"
       sodipodi:r1="5.0668883"
       sodipodi:r2="2.5334449"
       sodipodi:arg1="-0.048800235"
       sodipodi:arg2="0.73659793"
       inkscape:rounded="0"
       inkscape:randomized="0"
       d="m 170.83869,89.922419 -3.18419,1.949064 -1.6295,3.358959 -1.94906,-3.184186 -3.35896,-1.629503 3.18418,-1.949063 1.6295,-3.35896 1.94907,3.184186 z"
       transform="matrix(0.26458333,0,0,0.26458333,77.992287,107.93927)" /><path
       sodipodi:type="star"
       style="fill:#b5bfe2;stroke-width:0.264583"
       id="path23"
       inkscape:flatsided="false"
       sodipodi:sides="4"
       sodipodi:cx="282.79489"
       sodipodi:cy="219.54066"
       sodipodi:r1="8.9673882"
       sodipodi:r2="4.483695"
       sodipodi:arg1="0.004435451"
       sodipodi:arg2="0.78983361"
       inkscape:rounded="0"
       inkscape:randomized="0"
       d="m 291.76219,219.58044 -5.81094,3.14471 -3.19613,5.78281 -3.14471,-5.81094 -5.78282,-3.19613 5.81094,-3.14471 3.19614,-5.78282 3.1447,5.81095 z"
       transform="matrix(0.26458333,0,0,0.26458333,77.992287,107.93927)" /><ellipse
       style="fill:#b5bfe2;stroke-width:0.264583"
       id="path24"
       cx="108.25548"
       cy="124.7709"
       rx="0.36527696"
       ry="0.42746323" /><ellipse
       style="fill:#b5bfe2;stroke-width:0.264583"
       id="path24-9"
       cx="102.96381"
       cy="129.26881"
       rx="0.36527696"
       ry="0.42746323" /><ellipse
       style="fill:#b5bfe2;stroke-width:0.264583"
       id="path24-2"
       cx="105.60965"
       cy="135.08965"
       rx="0.36527696"
       ry="0.42746323" /><ellipse
       style="fill:#b5bfe2;stroke-width:0.264583"
       id="path24-3"
       cx="98.465897"
       cy="131.1209"
       rx="0.36527696"
       ry="0.42746323" /><ellipse
       style="fill:#b5bfe2;stroke-width:0.264583"
       id="path24-99"
       cx="91.851318"
       cy="135.88339"
       rx="0.36527696"
       ry="0.42746323" /><ellipse
       style="fill:#b5bfe2;stroke-width:0.264583"
       id="path24-1"
       cx="94.497147"
       cy="142.2334"
       rx="0.36527696"
       ry="0.42746323" /><ellipse
       style="fill:#b5bfe2;stroke-width:0.264583"
       id="path24-8"
       cx="97.936729"
       cy="147.52507"
       rx="0.36527696"
       ry="0.42746323" /><ellipse
       style="fill:#b5bfe2;stroke-width:0.264583"
       id="path24-80"
       cx="97.142982"
       cy="154.66881"
       rx="0.36527696"
       ry="0.42746323" /><ellipse
       style="fill:#b5bfe2;stroke-width:0.264583"
       id="path24-6"
       cx="93.438812"
       cy="159.96048"
       rx="0.36527696"
       ry="0.42746323" /><ellipse
       style="fill:#b5bfe2;stroke-width:0.264583"
       id="path24-22"
       cx="82.590897"
       cy="153.61049"
       rx="0.36527696"
       ry="0.42746323" /><ellipse
       style="fill:#b5bfe2;stroke-width:0.264583"
       id="path24-5"
       cx="81.267982"
       cy="163.92923"
       rx="0.36527696"
       ry="0.42746323" /><ellipse
       style="fill:#b5bfe2;stroke-width:0.264583"
       id="path24-28"
       cx="85.7659"
       cy="158.90215"
       rx="0.36527696"
       ry="0.42746323" /><ellipse
       style="fill:#b5bfe2;stroke-width:0.264583"
       id="path24-4"
       cx="79.680481"
       cy="152.28757"
       rx="0.36527696"
       ry="0.42746323" /><ellipse
       style="fill:#b5bfe2;stroke-width:0.264583"
       id="path24-96"
       cx="86.559647"
       cy="148.31882"
       rx="0.36527696"
       ry="0.42746323" /><ellipse
       style="fill:#b5bfe2;stroke-width:0.264583"
       id="path24-49"
       cx="81.003395"
       cy="129.79799"
       rx="0.36527696"
       ry="0.42746323" /><ellipse
       style="fill:#b5bfe2;stroke-width:0.264583"
       id="path24-0"
       cx="78.886734"
       cy="125.03548"
       rx="0.36527696"
       ry="0.42746323" /><ellipse
       style="fill:#b5bfe2;stroke-width:0.264583"
       id="path24-94"
       cx="81.79715"
       cy="125.56465"
       rx="0.36527696"
       ry="0.42746323" /><ellipse
       style="fill:#b5bfe2;stroke-width:0.264583"
       id="path24-7"
       cx="90.792984"
       cy="119.74381"
       rx="0.36527696"
       ry="0.42746323" /><ellipse
       style="fill:#b5bfe2;stroke-width:0.264583"
       id="path24-46"
       cx="89.205482"
       cy="111.80631"
       rx="0.36527696"
       ry="0.42746323" /><ellipse
       style="fill:#b5bfe2;stroke-width:0.264583"
       id="path24-26"
       cx="91.322151"
       cy="109.16048"
       rx="0.36527696"
       ry="0.42746323" /><ellipse
       style="fill:#b5bfe2;stroke-width:0.264583"
       id="path24-88"
       cx="97.142982"
       cy="118.15632"
       rx="0.36527696"
       ry="0.42746323" /><ellipse
       style="fill:#b5bfe2;stroke-width:0.264583"
       id="path24-886"
       cx="95.026314"
       cy="121.86048"
       rx="0.36527696"
       ry="0.42746323" /><ellipse
       style="fill:#b5bfe2;stroke-width:0.264583"
       id="path24-33"
       cx="92.380478"
       cy="127.15215"
       rx="0.36527696"
       ry="0.42746323" /><ellipse
       style="fill:#b5bfe2;stroke-width:0.264583"
       id="path24-47"
       cx="88.940895"
       cy="125.03548"
       rx="0.36527696"
       ry="0.42746323" /><ellipse
       style="fill:#b5bfe2;stroke-width:0.264583"
       id="path24-06"
       cx="112.48882"
       cy="108.8959"
       rx="0.36527696"
       ry="0.42746323" /><ellipse
       style="fill:#b5bfe2;stroke-width:0.264583"
       id="path24-03"
       cx="122.01382"
       cy="113.6584"
       rx="0.36527696"
       ry="0.42746323" /><ellipse
       style="fill:#b5bfe2;stroke-width:0.264583"
       id="path24-32"
       cx="129.15756"
       cy="127.68131"
       rx="0.36527696"
       ry="0.42746323" /><ellipse
       style="fill:#b5bfe2;stroke-width:0.264583"
       id="path24-65"
       cx="126.51173"
       cy="142.2334"
       rx="0.36527696"
       ry="0.42746323" /><ellipse
       style="fill:#b5bfe2;stroke-width:0.264583"
       id="path24-60"
       cx="123.60132"
       cy="143.02715"
       rx="0.36527696"
       ry="0.42746323" /><ellipse
       style="fill:#b5bfe2;stroke-width:0.264583"
       id="path24-48"
       cx="131.27423"
       cy="154.40424"
       rx="0.36527696"
       ry="0.42746323" /><ellipse
       style="fill:#b5bfe2;stroke-width:0.264583"
       id="path24-62"
       cx="118.57423"
       cy="152.55215"
       rx="0.36527696"
       ry="0.42746323" /><ellipse
       style="fill:#b5bfe2;stroke-width:0.264583"
       id="path24-39"
       cx="113.81173"
       cy="150.96465"
       rx="0.36527696"
       ry="0.42746323" /><ellipse
       style="fill:#b5bfe2;stroke-width:0.264583"
       id="path24-01"
       cx="109.5784"
       cy="154.9334"
       rx="0.36527696"
       ry="0.42746323" /><ellipse
       style="fill:#b5bfe2;stroke-width:0.264583"
       id="path24-15"
       cx="107.9909"
       cy="147.52507"
       rx="0.36527696"
       ry="0.42746323" /><ellipse
       style="fill:#b5bfe2;stroke-width:0.264583"
       id="path24-57"
       cx="105.87423"
       cy="160.22507"
       rx="0.36527696"
       ry="0.42746323" /><ellipse
       style="fill:#b5bfe2;stroke-width:0.264583"
       id="path24-45"
       cx="115.13465"
       cy="164.19382"
       rx="0.36527696"
       ry="0.42746323" /><ellipse
       style="fill:#b5bfe2;stroke-width:0.264583"
       id="path24-70"
       cx="123.07215"
       cy="168.69173"
       rx="0.36527696"
       ry="0.42746323" /><ellipse
       style="fill:#b5bfe2;stroke-width:0.264583"
       id="path24-97"
       cx="146.88464"
       cy="162.8709"
       rx="0.36527696"
       ry="0.42746323" /><ellipse
       style="fill:#b5bfe2;stroke-width:0.264583"
       id="path24-34"
       cx="142.12215"
       cy="162.8709"
       rx="0.36527696"
       ry="0.42746323" /><ellipse
       style="fill:#b5bfe2;stroke-width:0.264583"
       id="path24-019"
       cx="141.85756"
       cy="158.1084"
       rx="0.36527696"
       ry="0.42746323" /><ellipse
       style="fill:#b5bfe2;stroke-width:0.264583"
       id="path24-20"
       cx="139.74089"
       cy="152.02298"
       rx="0.36527696"
       ry="0.42746323" /><ellipse
       style="fill:#b5bfe2;stroke-width:0.264583"
       id="path24-19"
       cx="143.70964"
       cy="148.31882"
       rx="0.36527696"
       ry="0.42746323" /><ellipse
       style="fill:#b5bfe2;stroke-width:0.264583"
       id="path24-77"
       cx="146.0909"
       cy="145.93756"
       rx="0.36527696"
       ry="0.42746323" /><ellipse
       style="fill:#b5bfe2;stroke-width:0.264583"
       id="path24-474"
       cx="147.14923"
       cy="139.85214"
       rx="0.36527696"
       ry="0.42746323" /><ellipse
       style="fill:#b5bfe2;stroke-width:0.264583"
       id="path24-260"
       cx="150.85339"
       cy="136.67715"
       rx="0.36527696"
       ry="0.42746323" /><ellipse
       style="fill:#b5bfe2;stroke-width:0.264583"
       id="path24-628"
       cx="156.67422"
       cy="135.35423"
       rx="0.36527696"
       ry="0.42746323" /><ellipse
       style="fill:#b5bfe2;stroke-width:0.264583"
       id="path24-701"
       cx="149.53049"
       cy="130.59174"
       rx="0.36527696"
       ry="0.42746323" /><ellipse
       style="fill:#b5bfe2;stroke-width:0.264583"
       id="path24-772"
       cx="154.29298"
       cy="131.1209"
       rx="0.36527696"
       ry="0.42746323" /><ellipse
       style="fill:#b5bfe2;stroke-width:0.264583"
       id="path24-202"
       cx="156.67422"
       cy="126.62299"
       rx="0.36527696"
       ry="0.42746323" /><ellipse
       style="fill:#b5bfe2;stroke-width:0.264583"
       id="path24-945"
       cx="150.85339"
       cy="125.56465"
       rx="0.36527696"
       ry="0.42746323" /><ellipse
       style="fill:#b5bfe2;stroke-width:0.264583"
       id="path24-78"
       cx="151.38257"
       cy="119.74381"
       rx="0.36527696"
       ry="0.42746323" /><ellipse
       style="fill:#b5bfe2;stroke-width:0.264583"
       id="path24-467"
       cx="151.38257"
       cy="113.39381"
       rx="0.36527696"
       ry="0.42746323" /><ellipse
       style="fill:#b5bfe2;stroke-width:0.264583"
       id="path24-75"
       cx="144.5034"
       cy="109.16048"
       rx="0.36527696"
       ry="0.42746323" /><ellipse
       style="fill:#b5bfe2;stroke-width:0.264583"
       id="path24-53"
       cx="142.65132"
       cy="112.86465"
       rx="0.36527696"
       ry="0.42746323" /><ellipse
       style="fill:#b5bfe2;stroke-width:0.264583"
       id="path24-79"
       cx="156.40965"
       cy="165.25215"
       rx="0.36527696"
       ry="0.42746323" /><ellipse
       style="fill:#b5bfe2;stroke-width:0.264583"
       id="path24-74"
       cx="156.93881"
       cy="159.43132"
       rx="0.36527696"
       ry="0.42746323" /><ellipse
       style="fill:#b5bfe2;stroke-width:0.264583"
       id="path24-98"
       cx="155.08673"
       cy="154.13965"
       rx="0.36527696"
       ry="0.42746323" /><ellipse
       style="fill:#b5bfe2;stroke-width:0.264583"
       id="path24-43"
       cx="151.91173"
       cy="150.1709"
       rx="0.36527696"
       ry="0.42746323" /><ellipse
       style="fill:#b5bfe2;stroke-width:0.264583"
       id="path24-809"
       cx="155.88048"
       cy="168.42715"
       rx="0.36527696"
       ry="0.42746323" /><ellipse
       style="fill:#b5bfe2;stroke-width:0.264583"
       id="path24-220"
       cx="117.02885"
       cy="169.06946"
       rx="0.36527696"
       ry="0.42746323" /><ellipse
       style="fill:#b5bfe2;stroke-width:0.264583"
       id="path24-51"
       cx="137.09506"
       cy="129.00423"
       rx="0.36527696"
       ry="0.42746323" /><ellipse
       style="fill:#b5bfe2;stroke-width:0.264583"
       id="path24-71"
       cx="139.47632"
       cy="126.62299"
       rx="0.36527696"
       ry="0.42746323" /><ellipse
       style="fill:#b5bfe2;stroke-width:0.264583"
       id="path24-04"
       cx="136.83047"
       cy="123.97715"
       rx="0.36527696"
       ry="0.42746323" /></g></svg>
