<?xml version="1.0" encoding="UTF-8" standalone="no"?>
<!-- Created with Inkscape (http://www.inkscape.org/) -->

<svg
   width="160.86667mm"
   height="123.825mm"
   viewBox="0 0 160.86667 123.825"
   version="1.1"
   id="svg1"
   xml:space="preserve"
   inkscape:export-filename="stars-1.svg"
   inkscape:export-xdpi="96"
   inkscape:export-ydpi="96"
   xmlns:inkscape="http://www.inkscape.org/namespaces/inkscape"
   xmlns:sodipodi="http://sodipodi.sourceforge.net/DTD/sodipodi-0.dtd"
   xmlns="http://www.w3.org/2000/svg"
   xmlns:svg="http://www.w3.org/2000/svg"><sodipodi:namedview
     id="namedview1"
     pagecolor="#ffffff"
     bordercolor="#000000"
     borderopacity="0.25"
     inkscape:showpageshadow="2"
     inkscape:pageopacity="0.0"
     inkscape:pagecheckerboard="0"
     inkscape:deskcolor="#d1d1d1"
     inkscape:document-units="mm" /><defs
     id="defs1" /><g
     inkscape:label="Layer 1"
     inkscape:groupmode="layer"
     id="layer1"
     transform="translate(-0.83532238,-73.288994)"><path
       sodipodi:type="star"
       style="fill:#b5bfe2;stroke-width:0.264583"
       id="path1"
       inkscape:flatsided="false"
       sodipodi:sides="4"
       sodipodi:cx="38.419014"
       sodipodi:cy="28.057249"
       sodipodi:r1="18.4998"
       sodipodi:r2="9.2499018"
       sodipodi:arg1="0.03774366"
       sodipodi:arg2="0.82314182"
       inkscape:rounded="0"
       inkscape:randomized="0"
       d="M 56.905638,28.755333 44.708214,34.840069 37.72093,46.543873 31.636194,34.346449 19.93239,27.359165 32.129814,21.274429 39.117098,9.570625 45.201834,21.768049 Z"
       transform="matrix(-0.26533004,0,0,0.26458333,158.14713,73.288994)" /><path
       sodipodi:type="star"
       style="fill:#b5bfe2;stroke-width:0.264583"
       id="path2"
       inkscape:flatsided="false"
       sodipodi:sides="4"
       sodipodi:cx="272.12082"
       sodipodi:cy="42.654152"
       sodipodi:r1="22.119061"
       sodipodi:r2="11.059532"
       sodipodi:arg1="0.060221348"
       sodipodi:arg2="0.84561951"
       inkscape:rounded="0"
       inkscape:randomized="0"
       d="m 294.19978,43.985387 -14.74353,6.945521 -8.66667,13.802208 -6.94552,-14.743533 -13.8022,-8.666666 14.74353,-6.945522 8.66666,-13.802207 6.94553,14.743533 z"
       transform="matrix(-0.26533004,0,0,0.26458333,158.14713,73.288994)" /><path
       sodipodi:type="star"
       style="fill:#b5bfe2;stroke-width:0.264583"
       id="path3"
       inkscape:flatsided="false"
       sodipodi:sides="4"
       sodipodi:cx="350.15613"
       sodipodi:cy="76.957794"
       sodipodi:r1="23.488216"
       sodipodi:r2="11.744109"
       sodipodi:arg1="0.11597322"
       sodipodi:arg2="0.90137138"
       inkscape:rounded="0"
       inkscape:randomized="0"
       d="m 373.48657,79.675696 -16.04281,6.491578 -10.00553,14.120956 -6.49158,-16.042803 -14.12096,-10.005535 16.04281,-6.491577 10.00553,-14.120958 6.49158,16.042805 z"
       transform="matrix(-0.26533004,0,0,0.26458333,158.14713,73.288994)"
       inkscape:transform-center-x="-7.2045616e-06" /><path
       sodipodi:type="star"
       style="fill:#b5bfe2;stroke-width:0.264583"
       id="path4"
       inkscape:flatsided="false"
       sodipodi:sides="4"
       sodipodi:cx="438.41812"
       sodipodi:cy="73.80278"
       sodipodi:r1="14.340991"
       sodipodi:r2="7.1704965"
       sodipodi:arg1="-0.44993509"
       sodipodi:arg2="0.33546307"
       inkscape:rounded="0"
       inkscape:randomized="0"
       d="m 451.33183,67.565782 -6.14291,8.597572 -0.5338,10.553135 -8.59757,-6.14291 -10.55314,-0.5338 6.14291,-8.597573 0.5338,-10.553135 8.59758,6.142911 z"
       transform="matrix(-0.26533004,0,0,0.26458333,158.14713,73.288994)"
       inkscape:transform-center-x="-7.2904033e-06" /><path
       sodipodi:type="star"
       style="fill:#b5bfe2;stroke-width:0.264583"
       id="path5"
       inkscape:flatsided="false"
       sodipodi:sides="4"
       sodipodi:cx="498.23831"
       sodipodi:cy="88.377785"
       sodipodi:r1="15.573522"
       sodipodi:r2="7.7867622"
       sodipodi:arg1="0.36676841"
       sodipodi:arg2="1.1521666"
       inkscape:rounded="0"
       inkscape:randomized="0"
       d="m 512.77606,93.96246 -11.37236,1.529675 -8.75006,7.423395 -1.52968,-11.372357 -7.42339,-8.750063 11.37235,-1.529676 8.75007,-7.423393 1.52967,11.372356 z"
       transform="matrix(-0.26533004,0,0,0.26458333,158.14713,73.288994)"
       inkscape:transform-center-x="-7.348583e-06" /><path
       sodipodi:type="star"
       style="fill:#b5bfe2;stroke-width:0.264583"
       id="path6"
       inkscape:flatsided="false"
       sodipodi:sides="4"
       sodipodi:cx="410.79437"
       sodipodi:cy="197.18498"
       sodipodi:r1="19.86783"
       sodipodi:r2="9.9339161"
       sodipodi:arg1="-0.32175055"
       sodipodi:arg2="0.46364761"
       inkscape:rounded="0"
       inkscape:randomized="0"
       d="m 429.64265,190.90222 -9.96311,10.72534 -2.60241,14.4057 -10.72534,-9.96311 -14.4057,-2.60241 9.96312,-10.72534 2.6024,-14.4057 10.72534,9.96312 z"
       transform="matrix(-0.26533004,0,0,0.26458333,158.14713,73.288994)"
       inkscape:transform-center-x="-7.263537e-06" /><path
       sodipodi:type="star"
       style="fill:#b5bfe2;stroke-width:0.264583"
       id="path7"
       inkscape:flatsided="false"
       sodipodi:sides="4"
       sodipodi:cx="505.68817"
       sodipodi:cy="185.85149"
       sodipodi:r1="29.128878"
       sodipodi:r2="14.56444"
       sodipodi:arg1="2.7566994"
       sodipodi:arg2="3.5420976"
       inkscape:rounded="0"
       inkscape:randomized="0"
       d="m 478.69041,196.78822 13.58589,-16.61517 2.47514,-21.31933 16.61516,13.58589 21.31934,2.47514 -13.5859,16.61517 -2.47513,21.31933 -16.61517,-13.58589 z"
       transform="matrix(-0.26533004,0,0,0.26458333,158.14713,73.288994)"
       inkscape:transform-center-x="-7.3558286e-06" /><path
       sodipodi:type="star"
       style="fill:#b5bfe2;stroke-width:0.264583"
       id="path8"
       inkscape:flatsided="false"
       sodipodi:sides="4"
       sodipodi:cx="267.34451"
       sodipodi:cy="94.073875"
       sodipodi:r1="15.979683"
       sodipodi:r2="7.9898419"
       sodipodi:arg1="0.087483039"
       sodipodi:arg2="0.8728812"
       inkscape:rounded="0"
       inkscape:randomized="0"
       d="m 283.26309,95.470044 -10.78413,4.725516 -6.53062,9.79689 -4.72551,-10.784129 -9.79689,-6.530614 10.78413,-4.725518 6.53061,-9.796887 4.72552,10.784128 z"
       transform="matrix(-0.26533004,0,0,0.26458333,158.14713,73.288994)" /><path
       sodipodi:type="star"
       style="fill:#b5bfe2;stroke-width:0.264583"
       id="path9"
       inkscape:flatsided="false"
       sodipodi:sides="4"
       sodipodi:cx="235.16734"
       sodipodi:cy="91.209023"
       sodipodi:r1="5.1324778"
       sodipodi:r2="2.5662391"
       sodipodi:arg1="-0.45987933"
       sodipodi:arg2="0.32551883"
       inkscape:rounded="0"
       inkscape:randomized="0"
       d="m 239.76659,88.931024 -2.16777,3.098683 -0.15348,3.77856 -3.09868,-2.167772 -3.77856,-0.153474 2.16777,-3.098683 0.15347,-3.77856 3.09869,2.167772 z"
       transform="matrix(-0.26533004,0,0,0.26458333,158.14713,73.288994)" /><path
       sodipodi:type="star"
       style="fill:#b5bfe2;stroke-width:0.264583"
       id="path10"
       inkscape:flatsided="false"
       sodipodi:sides="4"
       sodipodi:cx="98.696625"
       sodipodi:cy="89.905823"
       sodipodi:r1="21.141239"
       sodipodi:r2="10.57062"
       sodipodi:arg1="2.9458886"
       sodipodi:arg2="3.7312867"
       inkscape:rounded="0"
       inkscape:randomized="0"
       d="m 77.958951,94.016889 11.952317,-9.989459 4.674291,-14.859281 9.989461,11.952317 14.85928,4.674291 -11.95232,9.989459 -4.67429,14.859284 -9.989458,-11.952321 z"
       transform="matrix(-0.26533004,0,0,0.26458333,158.14713,73.288994)" /><path
       sodipodi:type="star"
       style="fill:#b5bfe2;stroke-width:0.264583"
       id="path11"
       inkscape:flatsided="false"
       sodipodi:sides="4"
       sodipodi:cx="71.409805"
       sodipodi:cy="196.05042"
       sodipodi:r1="20.256479"
       sodipodi:r2="10.12824"
       sodipodi:arg1="0.034469101"
       sodipodi:arg2="0.81986726"
       inkscape:rounded="0"
       inkscape:randomized="0"
       d="m 91.654252,196.7485 -13.333764,6.70622 -7.608767,12.84014 -6.706219,-13.33376 -12.840144,-7.60877 13.333765,-6.70622 7.608767,-12.84014 6.706218,13.33376 z"
       transform="matrix(-0.26533004,0,0,0.26458333,158.14713,73.288994)" /><path
       sodipodi:type="star"
       style="fill:#b5bfe2;stroke-width:0.264583"
       id="path12"
       inkscape:flatsided="false"
       sodipodi:sides="4"
       sodipodi:cx="184.1356"
       sodipodi:cy="247.95805"
       sodipodi:r1="17.683954"
       sodipodi:r2="8.8419771"
       sodipodi:arg1="2.7783788"
       sodipodi:arg2="3.563777"
       inkscape:rounded="0"
       inkscape:randomized="0"
       d="m 167.60535,254.24081 8.46464,-9.90579 1.78286,-12.90722 9.90579,8.46464 12.90721,1.78285 -8.46463,9.9058 -1.78286,12.90721 -9.90579,-8.46463 z"
       transform="matrix(-0.26533004,0,0,0.26458333,158.14713,73.288994)" /><path
       sodipodi:type="star"
       style="fill:#b5bfe2;stroke-width:0.264583"
       id="path13"
       inkscape:flatsided="false"
       sodipodi:sides="4"
       sodipodi:cx="268.79846"
       sodipodi:cy="183.23993"
       sodipodi:r1="9.8088303"
       sodipodi:r2="4.9044151"
       sodipodi:arg1="0.21727575"
       sodipodi:arg2="1.0026739"
       inkscape:rounded="0"
       inkscape:randomized="0"
       d="m 278.37667,185.35442 -6.93939,2.0195 -4.75331,5.44422 -2.0195,-6.93939 -5.44422,-4.75331 6.93939,-2.0195 4.75331,-5.44422 2.01951,6.93939 z"
       transform="matrix(-0.26533004,0,0,0.26458333,158.14713,73.288994)" /><path
       sodipodi:type="star"
       style="fill:#b5bfe2;stroke-width:0.264583"
       id="path14"
       inkscape:flatsided="false"
       sodipodi:sides="4"
       sodipodi:cx="307.56259"
       sodipodi:cy="272.06992"
       sodipodi:r1="23.319698"
       sodipodi:r2="11.659849"
       sodipodi:arg1="2.5891754"
       sodipodi:arg2="3.3745736"
       inkscape:rounded="0"
       inkscape:randomized="0"
       d="m 287.7115,284.30685 8.50626,-14.92895 -0.8921,-17.15908 14.92895,8.50627 17.15907,-0.8921 -8.50626,14.92894 0.8921,17.15908 -14.92894,-8.50627 z"
       transform="matrix(-0.26533004,0,0,0.26458333,158.14713,73.288994)"
       inkscape:transform-center-x="-7.163136e-06" /><path
       sodipodi:type="star"
       style="fill:#b5bfe2;stroke-width:0.264583"
       id="path15"
       inkscape:flatsided="false"
       sodipodi:sides="4"
       sodipodi:cx="96.701729"
       sodipodi:cy="371.51294"
       sodipodi:r1="17.466066"
       sodipodi:r2="8.7330332"
       sodipodi:arg1="0.039978687"
       sodipodi:arg2="0.82537685"
       inkscape:rounded="0"
       inkscape:randomized="0"
       d="m 114.15384,372.21102 -11.52867,5.71898 -6.621526,11.03505 -5.718978,-11.52867 -11.035047,-6.62152 11.528667,-5.71898 6.621527,-11.03505 5.718977,11.52867 z"
       transform="matrix(-0.26533004,0,0,0.26458333,158.14713,73.288994)"
       inkscape:transform-center-y="-1.2383764e-06"
       inkscape:transform-center-x="-6.6348086e-06" /><path
       sodipodi:type="star"
       style="fill:#b5bfe2;stroke-width:0.264583"
       id="path16"
       inkscape:flatsided="false"
       sodipodi:sides="4"
       sodipodi:cx="218.91643"
       sodipodi:cy="428.04703"
       sodipodi:r1="14.214375"
       sodipodi:r2="7.1071877"
       sodipodi:arg1="-0.049130918"
       sodipodi:arg2="0.73626725"
       inkscape:rounded="0"
       inkscape:randomized="0"
       d="m 233.11365,427.34894 -8.93094,5.47075 -4.5682,9.42456 -5.47075,-8.93094 -9.42455,-4.5682 8.93093,-5.47075 4.5682,-9.42455 5.47075,8.93093 z"
       transform="matrix(-0.26533004,0,0,0.26458333,158.14713,73.288994)"
       inkscape:transform-center-y="-1.4268234e-06"
       inkscape:transform-center-x="-6.3451399e-06" /><path
       sodipodi:type="star"
       style="fill:#b5bfe2;stroke-width:0.264583"
       id="path17"
       inkscape:flatsided="false"
       sodipodi:sides="4"
       sodipodi:cx="293.74048"
       sodipodi:cy="452.00803"
       sodipodi:r1="16.656094"
       sodipodi:r2="8.3280468"
       sodipodi:arg1="0.094644543"
       sodipodi:arg2="0.88004271"
       inkscape:rounded="0"
       inkscape:randomized="0"
       d="m 310.32203,453.58208 -11.2756,4.84492 -6.88001,10.16258 -4.84492,-11.2756 -10.16257,-6.88001 11.2756,-4.84492 6.88,-10.16257 4.84492,11.2756 z"
       transform="matrix(-0.26533004,0,0,0.26458333,158.14713,73.288994)"
       inkscape:transform-center-y="-1.5066934e-06"
       inkscape:transform-center-x="-6.1677948e-06" /><path
       sodipodi:type="star"
       style="fill:#b5bfe2;stroke-width:0.264583"
       id="path18"
       inkscape:flatsided="false"
       sodipodi:sides="4"
       sodipodi:cx="536.91638"
       sodipodi:cy="365.38828"
       sodipodi:r1="22.401884"
       sodipodi:r2="11.200942"
       sodipodi:arg1="-0.27847496"
       sodipodi:arg2="0.5069232"
       inkscape:rounded="0"
       inkscape:randomized="0"
       d="m 558.45525,359.23023 -11.74653,11.59599 -3.63429,16.10092 -11.59599,-11.74653 -16.10093,-3.63429 11.74653,-11.59599 3.6343,-16.10092 11.59598,11.74653 z"
       transform="matrix(-0.26533004,0,0,0.26458333,158.14713,73.288994)"
       inkscape:transform-center-x="-7.3862005e-06"
       inkscape:transform-center-y="-1.217961e-06" /><path
       sodipodi:type="star"
       style="fill:#b5bfe2;stroke-width:0.264583"
       id="path19"
       inkscape:flatsided="false"
       sodipodi:sides="4"
       sodipodi:cx="490.42371"
       sodipodi:cy="410.29898"
       sodipodi:r1="14.388726"
       sodipodi:r2="7.1943631"
       sodipodi:arg1="0.75744758"
       sodipodi:arg2="1.5428457"
       inkscape:rounded="0"
       inkscape:randomized="0"
       d="m 500.87844,420.18503 -10.25367,-2.6945 -10.08711,3.26319 2.69449,-10.25368 -3.26318,-10.08711 10.25368,2.6945 10.08711,-3.26318 -2.6945,10.25367 z"
       transform="matrix(-0.26533004,0,0,0.26458333,158.14713,73.288994)"
       inkscape:transform-center-x="-7.3409828e-06"
       inkscape:transform-center-y="-1.3676632e-06" /><path
       sodipodi:type="star"
       style="fill:#b5bfe2;stroke-width:0.264583"
       id="path20"
       inkscape:flatsided="false"
       sodipodi:sides="4"
       sodipodi:cx="468.15369"
       sodipodi:cy="334.54199"
       sodipodi:r1="16.12409"
       sodipodi:r2="8.0620451"
       sodipodi:arg1="-0.49491014"
       sodipodi:arg2="0.29048802"
       inkscape:rounded="0"
       inkscape:randomized="0"
       d="m 482.34307,326.88381 -6.4651,9.96731 -0.0661,11.88026 -9.9673,-6.46511 -11.88026,-0.0661 6.46511,-9.96731 0.0661,-11.88025 9.96731,6.4651 z"
       transform="matrix(-0.26533004,0,0,0.26458333,158.14713,73.288994)"
       inkscape:transform-center-x="-7.3193235e-06"
       inkscape:transform-center-y="-1.11514e-06" /><path
       sodipodi:type="star"
       style="fill:#b5bfe2;stroke-width:0.264583"
       id="path21"
       inkscape:flatsided="false"
       sodipodi:sides="4"
       sodipodi:cx="277.51682"
       sodipodi:cy="321.84857"
       sodipodi:r1="17.233274"
       sodipodi:r2="8.6166382"
       sodipodi:arg1="3.1010736"
       sodipodi:arg2="3.8864718"
       inkscape:rounded="0"
       inkscape:randomized="0"
       d="m 260.29769,322.54666 10.88443,-6.53916 5.63661,-11.37806 6.53916,10.88444 11.37805,5.63661 -10.88443,6.53915 -5.63661,11.37806 -6.53916,-10.88444 z"
       transform="matrix(-0.26533004,0,0,0.26458333,158.14713,73.288994)"
       inkscape:transform-center-y="-1.0728285e-06"
       inkscape:transform-center-x="-6.2062474e-06" /><ellipse
       style="fill:#b5bfe2;stroke-width:0.264956"
       id="path22"
       cx="-105.68942"
       cy="116.08485"
       rx="0.75970268"
       ry="0.74741596"
       transform="scale(-1,1)" /><ellipse
       style="fill:#b5bfe2;stroke-width:0.264956"
       id="path22-2"
       cx="-87.340286"
       cy="75.623909"
       rx="0.75970268"
       ry="0.74741596"
       transform="scale(-1,1)" /><ellipse
       style="fill:#b5bfe2;stroke-width:0.264956"
       id="path22-4"
       cx="-131.91574"
       cy="76.153076"
       rx="0.75970268"
       ry="0.74741596"
       transform="scale(-1,1)" /><ellipse
       style="fill:#b5bfe2;stroke-width:0.264956"
       id="path22-1"
       cx="-135.89569"
       cy="80.915573"
       rx="0.75970268"
       ry="0.74741596"
       transform="scale(-1,1)" /><ellipse
       style="fill:#b5bfe2;stroke-width:0.264956"
       id="path22-9"
       cx="-122.89452"
       cy="83.561409"
       rx="0.75970268"
       ry="0.74741596"
       transform="scale(-1,1)" /><ellipse
       style="fill:#b5bfe2;stroke-width:0.264956"
       id="path22-46"
       cx="-150.48883"
       cy="107.37391"
       rx="0.75970268"
       ry="0.74741596"
       transform="scale(-1,1)" /><ellipse
       style="fill:#b5bfe2;stroke-width:0.264956"
       id="path22-7"
       cx="-150.48883"
       cy="117.69266"
       rx="0.75970268"
       ry="0.74741596"
       transform="scale(-1,1)" /><ellipse
       style="fill:#b5bfe2;stroke-width:0.264956"
       id="path22-70"
       cx="-157.1221"
       cy="115.31141"
       rx="0.75970268"
       ry="0.74741596"
       transform="scale(-1,1)" /><ellipse
       style="fill:#b5bfe2;stroke-width:0.264956"
       id="path22-5"
       cx="-135.09969"
       cy="107.90308"
       rx="0.75970268"
       ry="0.74741596"
       transform="scale(-1,1)" /><ellipse
       style="fill:#b5bfe2;stroke-width:0.264956"
       id="path22-15"
       cx="-128.9971"
       cy="111.60725"
       rx="0.75970268"
       ry="0.74741596"
       transform="scale(-1,1)" /><ellipse
       style="fill:#b5bfe2;stroke-width:0.264956"
       id="path22-54"
       cx="-124.22117"
       cy="101.28849"
       rx="0.75970268"
       ry="0.74741596"
       transform="scale(-1,1)" /><ellipse
       style="fill:#b5bfe2;stroke-width:0.264956"
       id="path22-8"
       cx="-115.99594"
       cy="121.39683"
       rx="0.75970268"
       ry="0.74741596"
       transform="scale(-1,1)" /><ellipse
       style="fill:#b5bfe2;stroke-width:0.264956"
       id="path22-27"
       cx="-130.5891"
       cy="129.86349"
       rx="0.75970268"
       ry="0.74741596"
       transform="scale(-1,1)" /><ellipse
       style="fill:#b5bfe2;stroke-width:0.264956"
       id="path22-6"
       cx="-125.28249"
       cy="142.2989"
       rx="0.75970268"
       ry="0.74741596"
       transform="scale(-1,1)" /><ellipse
       style="fill:#b5bfe2;stroke-width:0.264956"
       id="path22-3"
       cx="-119.17989"
       cy="144.68016"
       rx="0.75970268"
       ry="0.74741596"
       transform="scale(-1,1)" /><ellipse
       style="fill:#b5bfe2;stroke-width:0.264956"
       id="path22-97"
       cx="-114.40395"
       cy="150.2364"
       rx="0.75970268"
       ry="0.74741596"
       transform="scale(-1,1)" /><ellipse
       style="fill:#b5bfe2;stroke-width:0.264956"
       id="path22-90"
       cx="-119.44522"
       cy="166.1114"
       rx="0.75970268"
       ry="0.74741596"
       transform="scale(-1,1)" /><ellipse
       style="fill:#b5bfe2;stroke-width:0.264956"
       id="path22-65"
       cx="-147.83554"
       cy="163.99474"
       rx="0.75970268"
       ry="0.74741596"
       transform="scale(-1,1)" /><ellipse
       style="fill:#b5bfe2;stroke-width:0.264956"
       id="path22-33"
       cx="-143.0596"
       cy="174.31349"
       rx="0.75970268"
       ry="0.74741596"
       transform="scale(-1,1)" /><ellipse
       style="fill:#b5bfe2;stroke-width:0.264956"
       id="path22-0"
       cx="-152.87682"
       cy="183.83849"
       rx="0.75970268"
       ry="0.74741596"
       transform="scale(-1,1)" /><ellipse
       style="fill:#b5bfe2;stroke-width:0.264956"
       id="path22-35"
       cx="-102.72943"
       cy="178.81142"
       rx="0.75970268"
       ry="0.74741596"
       transform="scale(-1,1)" /><ellipse
       style="fill:#b5bfe2;stroke-width:0.264956"
       id="path22-41"
       cx="-93.442886"
       cy="166.64058"
       rx="0.75970268"
       ry="0.74741596"
       transform="scale(-1,1)" /><ellipse
       style="fill:#b5bfe2;stroke-width:0.264956"
       id="path22-93"
       cx="-98.484146"
       cy="153.67599"
       rx="0.75970268"
       ry="0.74741596"
       transform="scale(-1,1)" /><ellipse
       style="fill:#b5bfe2;stroke-width:0.264956"
       id="path22-08"
       cx="-75.931099"
       cy="162.67183"
       rx="0.75970268"
       ry="0.74741596"
       transform="scale(-1,1)" /><ellipse
       style="fill:#b5bfe2;stroke-width:0.264956"
       id="path22-63"
       cx="-48.867432"
       cy="185.42599"
       rx="0.75970268"
       ry="0.74741596"
       transform="scale(-1,1)" /><ellipse
       style="fill:#b5bfe2;stroke-width:0.264956"
       id="path22-30"
       cx="-12.251882"
       cy="121.92599"
       rx="0.75970268"
       ry="0.74741596"
       transform="scale(-1,1)" /><ellipse
       style="fill:#b5bfe2;stroke-width:0.264956"
       id="path22-650"
       cx="-12.251882"
       cy="130.65724"
       rx="0.75970268"
       ry="0.74741596"
       transform="scale(-1,1)" /><ellipse
       style="fill:#b5bfe2;stroke-width:0.264956"
       id="path22-66"
       cx="-1.6386851"
       cy="128.01141"
       rx="0.75970268"
       ry="0.74741596"
       transform="scale(-1,1)" /><ellipse
       style="fill:#b5bfe2;stroke-width:0.264956"
       id="path22-895"
       cx="-5.0879674"
       cy="123.24891"
       rx="0.75970268"
       ry="0.74741596"
       transform="scale(-1,1)" /><ellipse
       style="fill:#b5bfe2;stroke-width:0.264956"
       id="path22-83"
       cx="-5.0879674"
       cy="113.72391"
       rx="0.75970268"
       ry="0.74741596"
       transform="scale(-1,1)" /><ellipse
       style="fill:#b5bfe2;stroke-width:0.264956"
       id="path22-10"
       cx="-8.0066118"
       cy="106.58016"
       rx="0.75970268"
       ry="0.74741596"
       transform="scale(-1,1)" /><ellipse
       style="fill:#b5bfe2;stroke-width:0.264956"
       id="path22-507"
       cx="-22.599758"
       cy="108.16766"
       rx="0.75970268"
       ry="0.74741596"
       transform="scale(-1,1)" /><ellipse
       style="fill:#b5bfe2;stroke-width:0.264956"
       id="path22-307"
       cx="-30.55966"
       cy="116.36974"
       rx="0.75970268"
       ry="0.74741596"
       transform="scale(-1,1)" /><ellipse
       style="fill:#b5bfe2;stroke-width:0.264956"
       id="path22-91"
       cx="-38.519562"
       cy="114.78224"
       rx="0.75970268"
       ry="0.74741596"
       transform="scale(-1,1)" /><ellipse
       style="fill:#b5bfe2;stroke-width:0.264956"
       id="path22-898"
       cx="-35.070274"
       cy="99.436409"
       rx="0.75970268"
       ry="0.74741596"
       transform="scale(-1,1)" /><ellipse
       style="fill:#b5bfe2;stroke-width:0.264956"
       id="path22-706"
       cx="-36.396919"
       cy="83.296829"
       rx="0.75970268"
       ry="0.74741596"
       transform="scale(-1,1)" /><ellipse
       style="fill:#b5bfe2;stroke-width:0.264956"
       id="path22-77"
       cx="-28.437017"
       cy="76.682243"
       rx="0.75970268"
       ry="0.74741596"
       transform="scale(-1,1)" /><ellipse
       style="fill:#b5bfe2;stroke-width:0.264956"
       id="path22-271"
       cx="-18.089155"
       cy="84.355156"
       rx="0.75970268"
       ry="0.74741596"
       transform="scale(-1,1)" /><ellipse
       style="fill:#b5bfe2;stroke-width:0.264956"
       id="path22-45"
       cx="-3.7613275"
       cy="164.25932"
       rx="0.75970268"
       ry="0.74741596"
       transform="scale(-1,1)" /><ellipse
       style="fill:#b5bfe2;stroke-width:0.264956"
       id="path22-84"
       cx="-8.0066118"
       cy="151.82391"
       rx="0.75970268"
       ry="0.74741596"
       transform="scale(-1,1)" /><ellipse
       style="fill:#b5bfe2;stroke-width:0.264956"
       id="path22-87"
       cx="-25.783724"
       cy="152.61766"
       rx="0.75970268"
       ry="0.74741596"
       transform="scale(-1,1)" /><ellipse
       style="fill:#b5bfe2;stroke-width:0.264956"
       id="path22-505"
       cx="-21.007784"
       cy="149.44266"
       rx="0.75970268"
       ry="0.74741596"
       transform="scale(-1,1)" /><ellipse
       style="fill:#b5bfe2;stroke-width:0.264956"
       id="path22-72"
       cx="-20.211784"
       cy="138.33015"
       rx="0.75970268"
       ry="0.74741596"
       transform="scale(-1,1)" /><ellipse
       style="fill:#b5bfe2;stroke-width:0.264956"
       id="path22-94"
       cx="-53.112724"
       cy="166.1114"
       rx="0.75970268"
       ry="0.74741596"
       transform="scale(-1,1)" /><ellipse
       style="fill:#b5bfe2;stroke-width:0.264956"
       id="path22-74"
       cx="-42.764839"
       cy="152.35307"
       rx="0.75970268"
       ry="0.74741596"
       transform="scale(-1,1)" /><ellipse
       style="fill:#b5bfe2;stroke-width:0.264956"
       id="path22-16"
       cx="-68.236526"
       cy="142.82808"
       rx="0.75970268"
       ry="0.74741596"
       transform="scale(-1,1)" /><ellipse
       style="fill:#b5bfe2;stroke-width:0.264956"
       id="path22-29"
       cx="-60.807281"
       cy="141.76974"
       rx="0.75970268"
       ry="0.74741596"
       transform="scale(-1,1)" /><ellipse
       style="fill:#b5bfe2;stroke-width:0.264956"
       id="path22-56"
       cx="-54.970024"
       cy="129.33432"
       rx="0.75970268"
       ry="0.74741596"
       transform="scale(-1,1)" /><ellipse
       style="fill:#b5bfe2;stroke-width:0.264956"
       id="path22-31"
       cx="-69.563179"
       cy="120.60307"
       rx="0.75970268"
       ry="0.74741596"
       transform="scale(-1,1)" /><ellipse
       style="fill:#b5bfe2;stroke-width:0.264956"
       id="path22-51"
       cx="-12.78255"
       cy="192.30516"
       rx="0.75970268"
       ry="0.74741596"
       transform="scale(-1,1)" /><ellipse
       style="fill:#b5bfe2;stroke-width:0.264956"
       id="path22-312"
       cx="-2.4346721"
       cy="188.33641"
       rx="0.75970268"
       ry="0.74741596"
       transform="scale(-1,1)" /><ellipse
       style="fill:#b5bfe2;stroke-width:0.264956"
       id="path22-749"
       cx="-13.047884"
       cy="183.30933"
       rx="0.75970268"
       ry="0.74741596"
       transform="scale(-1,1)" /><ellipse
       style="fill:#b5bfe2;stroke-width:0.264956"
       id="path22-59"
       cx="-4.2919803"
       cy="176.43016"
       rx="0.75970268"
       ry="0.74741596"
       transform="scale(-1,1)" /><ellipse
       style="fill:#b5bfe2;stroke-width:0.264956"
       id="path22-96"
       cx="-138.01833"
       cy="149.97183"
       rx="0.75970268"
       ry="0.74741596"
       transform="scale(-1,1)" /><ellipse
       style="fill:#b5bfe2;stroke-width:0.264956"
       id="path22-09"
       cx="-153.40747"
       cy="138.59474"
       rx="0.75970268"
       ry="0.74741596"
       transform="scale(-1,1)" /><ellipse
       style="fill:#b5bfe2;stroke-width:0.264956"
       id="path22-663"
       cx="-106.44406"
       cy="78.534325"
       rx="0.75970268"
       ry="0.74741596"
       transform="scale(-1,1)" /><ellipse
       style="fill:#b5bfe2;stroke-width:0.264956"
       id="path22-21"
       cx="-110.95466"
       cy="98.907242"
       rx="0.75970268"
       ry="0.74741596"
       transform="scale(-1,1)" /><ellipse
       style="fill:#b5bfe2;stroke-width:0.264956"
       id="path22-913"
       cx="-69.297844"
       cy="179.34058"
       rx="0.75970268"
       ry="0.74741596"
       transform="scale(-1,1)" /><ellipse
       style="fill:#b5bfe2;stroke-width:0.264956"
       id="path22-57"
       cx="-60.807281"
       cy="193.62808"
       rx="0.75970268"
       ry="0.74741596"
       transform="scale(-1,1)" /><ellipse
       style="fill:#b5bfe2;stroke-width:0.264956"
       id="path22-95"
       cx="-125.81314"
       cy="190.98224"
       rx="0.75970268"
       ry="0.74741596"
       transform="scale(-1,1)" /></g></svg>
